REM DIRINDEX 1\2,1\3,1\4
REM DIRNAME cjc151,folder01,folder02,folder03
TITLE ""
FILE "035 035_TOEFL_3900.mp3" MP3
  TRACK 01 AUDIO
    TITLE "2:cjc151_1505"
    INDEX 01 00:00:00
  TRACK 02 AUDIO
    TITLE "0:"
    INDEX 01 00:01:17
  TRACK 03 AUDIO
    TITLE "3:cjc151_1506"
    INDEX 01 00:02:67
  TRACK 04 AUDIO
    TITLE "0:"
    INDEX 01 00:07:35
  TRACK 05 AUDIO
    TITLE "2:cjc151_1507"
    INDEX 01 00:09:14
  TRACK 06 AUDIO
    TITLE "0:"
    INDEX 01 00:10:19
  TRACK 07 AUDIO
    TITLE "3:cjc151_1508"
    INDEX 01 00:11:72
  TRACK 08 AUDIO
    TITLE "0:"
    INDEX 01 00:15:66
  TRACK 09 AUDIO
    TITLE "2:cjc151_1509"
    INDEX 01 00:17:43
  TRACK 10 AUDIO
    TITLE "0:"
    INDEX 01 00:18:44
  TRACK 11 AUDIO
    TITLE "3:cjc151_1510"
    INDEX 01 00:20:24
  TRACK 12 AUDIO
    TITLE "0:"
    INDEX 01 00:23:61
  TRACK 13 AUDIO
    TITLE "2:cjc151_1511"
    INDEX 01 00:25:41
  TRACK 14 AUDIO
    TITLE "0:"
    INDEX 01 00:26:40
  TRACK 15 AUDIO
    TITLE "3:cjc151_1512"
    INDEX 01 00:28:19
  TRACK 16 AUDIO
    TITLE "0:"
    INDEX 01 00:32:01
  TRACK 17 AUDIO
    TITLE "2:cjc151_1513"
    INDEX 01 00:33:56
  TRACK 18 AUDIO
    TITLE "0:"
    INDEX 01 00:34:65
  TRACK 19 AUDIO
    TITLE "3:cjc151_1514"
    INDEX 01 00:36:40
  TRACK 20 AUDIO
    TITLE "0:"
    INDEX 01 00:40:48
  TRACK 21 AUDIO
    TITLE "2:cjc151_1515"
    INDEX 01 00:42:25
  TRACK 22 AUDIO
    TITLE "0:"
    INDEX 01 00:43:29
  TRACK 23 AUDIO
    TITLE "3:cjc151_1516"
    INDEX 01 00:45:06
  TRACK 24 AUDIO
    TITLE "0:"
    INDEX 01 00:49:27
  TRACK 25 AUDIO
    TITLE "2:cjc151_1517"
    INDEX 01 00:51:07
  TRACK 26 AUDIO
    TITLE "0:"
    INDEX 01 00:52:04
  TRACK 27 AUDIO
    TITLE "3:cjc151_1518"
    INDEX 01 00:53:58
  TRACK 28 AUDIO
    TITLE "0:"
    INDEX 01 00:57:13
  TRACK 29 AUDIO
    TITLE "2:cjc151_1519"
    INDEX 01 00:58:66
  TRACK 30 AUDIO
    TITLE "0:"
    INDEX 01 01:00:12
  TRACK 31 AUDIO
    TITLE "3:cjc151_1520"
    INDEX 01 01:01:64
  TRACK 32 AUDIO
    TITLE "0:"
    INDEX 01 01:06:34
  TRACK 33 AUDIO
    TITLE "2:cjc151_1521"
    INDEX 01 01:08:11
  TRACK 34 AUDIO
    TITLE "0:"
    INDEX 01 01:09:12
  TRACK 35 AUDIO
    TITLE "3:cjc151_1522"
    INDEX 01 01:10:67
  TRACK 36 AUDIO
    TITLE "0:"
    INDEX 01 01:15:07
  TRACK 37 AUDIO
    TITLE "2:cjc151_1523"
    INDEX 01 01:16:60
  TRACK 38 AUDIO
    TITLE "0:"
    INDEX 01 01:17:69
  TRACK 39 AUDIO
    TITLE "3:cjc151_1524"
    INDEX 01 01:19:48
  TRACK 40 AUDIO
    TITLE "0:"
    INDEX 01 01:23:05
  TRACK 41 AUDIO
    TITLE "2:cjc151_1525"
    INDEX 01 01:24:59
  TRACK 42 AUDIO
    TITLE "0:"
    INDEX 01 01:26:09
  TRACK 43 AUDIO
    TITLE "3:cjc151_1526"
    INDEX 01 01:27:61
  TRACK 44 AUDIO
    TITLE "0:"
    INDEX 01 01:32:04
  TRACK 45 AUDIO
    TITLE "2:cjc151_1527"
    INDEX 01 01:33:56
  TRACK 46 AUDIO
    TITLE "0:"
    INDEX 01 01:35:02
  TRACK 47 AUDIO
    TITLE "3:cjc151_1528"
    INDEX 01 01:36:54
  TRACK 48 AUDIO
    TITLE "0:"
    INDEX 01 01:41:46
  TRACK 49 AUDIO
    TITLE "2:cjc151_1529"
    INDEX 01 01:43:25
  TRACK 50 AUDIO
    TITLE "0:"
    INDEX 01 01:44:28
  TRACK 51 AUDIO
    TITLE "3:cjc151_1530"
    INDEX 01 01:46:06
  TRACK 52 AUDIO
    TITLE "0:"
    INDEX 01 01:50:09
  TRACK 53 AUDIO
    TITLE "2:cjc151_1531"
    INDEX 01 01:51:64
  TRACK 54 AUDIO
    TITLE "0:"
    INDEX 01 01:52:65
  TRACK 55 AUDIO
    TITLE "3:cjc151_1532"
    INDEX 01 01:54:41
  TRACK 56 AUDIO
    TITLE "0:"
    INDEX 01 01:58:27
  TRACK 57 AUDIO
    TITLE "2:cjc151_1533"
    INDEX 01 02:00:04
  TRACK 58 AUDIO
    TITLE "0:"
    INDEX 01 02:01:15
  TRACK 59 AUDIO
    TITLE "3:cjc151_1534"
    INDEX 01 02:02:67
  TRACK 60 AUDIO
    TITLE "0:"
    INDEX 01 02:06:36
  TRACK 61 AUDIO
    TITLE "2:cjc151_1535"
    INDEX 01 02:08:21
  TRACK 62 AUDIO
    TITLE "0:"
    INDEX 01 02:09:28
  TRACK 63 AUDIO
    TITLE "3:cjc151_1536"
    INDEX 01 02:11:06
  TRACK 64 AUDIO
    TITLE "0:"
    INDEX 01 02:14:14
  TRACK 65 AUDIO
    TITLE "2:cjc151_1537"
    INDEX 01 02:15:68
  TRACK 66 AUDIO
    TITLE "0:"
    INDEX 01 02:17:04
  TRACK 67 AUDIO
    TITLE "3:cjc151_1538"
    INDEX 01 02:18:57
  TRACK 68 AUDIO
    TITLE "0:"
    INDEX 01 02:22:56
  TRACK 69 AUDIO
    TITLE "2:cjc151_1539"
    INDEX 01 02:24:36
  TRACK 70 AUDIO
    TITLE "0:"
    INDEX 01 02:25:49
  TRACK 71 AUDIO
    TITLE "3:cjc151_1540"
    INDEX 01 02:27:28
  TRACK 72 AUDIO
    TITLE "0:"
    INDEX 01 02:31:18
  TRACK 73 AUDIO
    TITLE "2:cjc151_1541"
    INDEX 01 02:32:71
  TRACK 74 AUDIO
    TITLE "0:"
    INDEX 01 02:33:70
  TRACK 75 AUDIO
    TITLE "3:cjc151_1542"
    INDEX 01 02:35:49
  TRACK 76 AUDIO
    TITLE "0:"
    INDEX 01 02:40:11
  TRACK 77 AUDIO
    TITLE "2:cjc151_1543"
    INDEX 01 02:41:66
  TRACK 78 AUDIO
    TITLE "0:"
    INDEX 01 02:43:06
  TRACK 79 AUDIO
    TITLE "3:cjc151_1544"
    INDEX 01 02:44:58
  TRACK 80 AUDIO
    TITLE "0:"
    INDEX 01 02:48:66
  TRACK 81 AUDIO
    TITLE "2:cjc151_1545"
    INDEX 01 02:50:47
  TRACK 82 AUDIO
    TITLE "0:"
    INDEX 01 02:51:52
  TRACK 83 AUDIO
    TITLE "3:cjc151_1546"
    INDEX 01 02:53:28
  TRACK 84 AUDIO
    TITLE "0:"
    INDEX 01 02:57:51
  TRACK 85 AUDIO
    TITLE "2:cjc151_1547"
    INDEX 01 02:59:28
  TRACK 86 AUDIO
    TITLE "0:"
    INDEX 01 03:00:51
  TRACK 87 AUDIO
    TITLE "3:cjc151_1548"
    INDEX 01 03:02:30
  TRACK 88 AUDIO
    TITLE "0:"
    INDEX 01 03:06:44
